<!-- RentSmart Favicon -->
<svg width="64" height="64" viewBox="0 0 64 64" fill="none" xmlns="http://www.w3.org/2000/svg" role="img" aria-label="RentSmart Icon">
  <defs>
    <linearGradient id="g-neon" x1="0" y1="0" x2="1" y2="1">
      <stop offset="0%" stop-color="#00FF99"/>
      <stop offset="100%" stop-color="#48FFC2"/>
    </linearGradient>
  </defs>
  <rect width="64" height="64" rx="12" fill="#0B0F13"/>
  <path d="M32 7 54 20v24L32 57 10 44V20L32 7Z"
        fill="rgba(0,255,153,0.08)" stroke="url(#g-neon)" stroke-width="1.6"/>
  <!-- Minimal RS mark -->
  <path d="M20 22h13c6 0 9 4 9 8s-3 8-9 8h-6l10 11"
        stroke="url(#g-neon)" stroke-width="3" stroke-linecap="round" stroke-linejoin="round"/>
  <path d="M45 28c0-4-4-6-10-6-6 0-10 2-12 4m0 20c2 2 6 4 12 4 6 0 10-2 10-6"
        stroke="url(#g-neon)" stroke-width="3" stroke-linecap="round" stroke-linejoin="round"/>
</svg>
